<svg width="37" height="36" viewBox="0 0 37 36" fill="none" xmlns="http://www.w3.org/2000/svg">
<g id="VK_Full_Logo_(2021-present) 1" clip-path="url(#clip0_80_324)">
<path id="Vector" d="M0 17.28C0 9.1341 0 5.06119 2.56727 2.5306C5.13455 0 9.26648 0 17.5304 0H18.9913C27.2553 0 31.3872 0 33.9545 2.5306C36.5217 5.06119 36.5217 9.1341 36.5217 17.28V18.72C36.5217 26.8659 36.5217 30.9388 33.9545 33.4694C31.3872 36 27.2553 36 18.9913 36H17.5304C9.26648 36 5.13455 36 2.56727 33.4694C0 30.9388 0 26.8659 0 18.72V17.28Z" fill="#0077FF"/>
<path id="Vector_2" d="M19.4326 25.9352C11.1087 25.9352 6.36091 20.3102 6.16309 10.9502H10.3327C10.4696 17.8202 13.5434 20.7302 15.9782 21.3302V10.9502H19.9045V16.8752C22.3088 16.6202 24.8346 13.9202 25.6868 10.9502H29.6129C28.9586 14.6102 26.2195 17.3102 24.2716 18.4202C26.2195 19.3202 29.3392 21.6752 30.5261 25.9352H26.2042C25.276 23.0852 22.9632 20.8802 19.9045 20.5802V25.9352H19.4326Z" fill="white"/>
</g>
<defs>
<clipPath id="clip0_80_324">
<rect width="37" height="36" fill="white"/>
</clipPath>
</defs>
</svg>
