<svg width="37" height="38" viewBox="0 0 37 38" fill="none" xmlns="http://www.w3.org/2000/svg">
<g id="whatsapp-icon-seeklogo.com 1" clip-path="url(#clip0_80_336)">
<path id="Vector" d="M0.84668 36.9174L3.34073 27.6058C1.80206 24.8807 0.992905 21.7889 0.993876 18.6224C0.99791 8.71466 8.88391 0.654053 18.5733 0.654053C23.2761 0.656224 27.6899 2.5276 31.0085 5.92407C34.3278 9.32051 36.1547 13.8351 36.1527 18.6364C36.1487 28.5444 28.2622 36.6057 18.574 36.6057C18.5733 36.6057 18.5745 36.6057 18.574 36.6057H18.5662C15.6242 36.6048 12.7334 35.8496 10.1659 34.4188L0.84668 36.9174Z" fill="url(#paint0_linear_80_336)"/>
<path id="Vector_2" fill-rule="evenodd" clip-rule="evenodd" d="M14.025 10.835C13.6842 10.0603 13.3254 10.0447 13.0011 10.0312C12.7359 10.0196 12.4323 10.0203 12.1292 10.0203C11.8258 10.0203 11.3328 10.1368 10.9159 10.6024C10.4988 11.0679 9.32324 12.1934 9.32324 14.4823C9.32324 16.7715 10.9539 18.9834 11.1812 19.294C11.4087 19.6042 14.3289 24.4516 18.9536 26.3164C22.7972 27.8662 23.5793 27.558 24.4136 27.4804C25.2479 27.4029 27.1056 26.3552 27.4848 25.2688C27.864 24.1826 27.864 23.2515 27.7502 23.0569C27.6365 22.863 27.3331 22.7467 26.878 22.514C26.423 22.2814 24.1861 21.1557 23.769 21.0006C23.3518 20.8455 23.0484 20.768 22.7451 21.2338C22.4417 21.6991 21.5702 22.7467 21.3048 23.0569C21.0393 23.3678 20.7739 23.4066 20.3188 23.1739C19.8637 22.9406 18.3983 22.4498 16.6599 20.8649C15.3072 19.6318 14.394 18.1089 14.1286 17.6432C13.8631 17.1779 14.1001 16.9258 14.3284 16.6939C14.5327 16.4855 14.7834 16.1508 15.011 15.8791C15.238 15.6074 15.3139 15.4136 15.4655 15.1034C15.6172 14.7927 15.5414 14.521 15.4276 14.2884C15.3139 14.0557 14.4296 11.755 14.025 10.835Z" fill="white"/>
<path id="Vector_3" d="M31.4581 5.46222C28.0198 1.94412 23.4479 0.00562039 18.5769 0.00341797C8.5393 0.00341797 0.370771 8.35313 0.366736 18.6161C0.365553 21.8968 1.20386 25.0991 2.79726 27.9219L0.213867 37.5672L9.86725 34.9789C12.527 36.4621 15.5216 37.2436 18.569 37.2449H18.5768H18.5769C28.6128 37.2449 36.7825 28.8937 36.7868 18.6311C36.7884 13.6573 34.8959 8.98058 31.4581 5.46222ZM18.5769 34.1012H18.5709C15.8546 34.0997 13.1908 33.354 10.8674 31.9443L10.3145 31.6092L4.58597 33.1449L6.11539 27.436L5.75513 26.8508C4.23994 24.3873 3.44004 21.5405 3.44123 18.6174C3.44453 10.0871 10.2339 3.14736 18.5826 3.14736C22.6255 3.14906 26.4252 4.7604 29.2831 7.68453C32.1407 10.6087 33.7132 14.4958 33.7121 18.63C33.7085 27.1605 26.9189 34.1012 18.5769 34.1012Z" fill="white"/>
</g>
<defs>
<linearGradient id="paint0_linear_80_336" x1="18.4997" y1="36.9174" x2="18.4997" y2="0.654113" gradientUnits="userSpaceOnUse">
<stop stop-color="#20B038"/>
<stop offset="1" stop-color="#60D66A"/>
</linearGradient>
<clipPath id="clip0_80_336">
<rect width="37" height="38" fill="white"/>
</clipPath>
</defs>
</svg>
